ISO-10303-21;
HEADER;
/* Generated by software containing ST-Developer
 * from STEP Tools, Inc. (www.steptools.com) 
 */

FILE_DESCRIPTION(
/* description */ (''),
/* implementation_level */ '2;1');

FILE_NAME(
/* name */ 'Pushbuttons.step',
/* time_stamp */ '2026-01-08T11:54:26-06:00',
/* author */ (''),
/* organization */ (''),
/* preprocessor_version */ 'ST-DEVELOPER v20.1',
/* originating_system */ 'Autodesk Translation Framework v14.21.0.0',
/* authorisation */ '');

FILE_SCHEMA (('AUTOMOTIVE_DESIGN { 1 0 10303 214 3 1 1 }'));
ENDSEC;

DATA;
#10=MECHANICAL_DESIGN_GEOMETRIC_PRESENTATION_REPRESENTATION('',(#23,#24),
#888);
#11=ITEM_DEFINED_TRANSFORMATION($,$,#532,#581);
#12=ITEM_DEFINED_TRANSFORMATION($,$,#532,#582);
#13=(
REPRESENTATION_RELATIONSHIP($,$,#900,#899)
REPRESENTATION_RELATIONSHIP_WITH_TRANSFORMATION(#11)
SHAPE_REPRESENTATION_RELATIONSHIP()
);
#14=(
REPRESENTATION_RELATIONSHIP($,$,#900,#899)
REPRESENTATION_RELATIONSHIP_WITH_TRANSFORMATION(#12)
SHAPE_REPRESENTATION_RELATIONSHIP()
);
#15=CONTEXT_DEPENDENT_SHAPE_REPRESENTATION(#13,#897);
#16=CONTEXT_DEPENDENT_SHAPE_REPRESENTATION(#14,#898);
#17=NEXT_ASSEMBLY_USAGE_OCCURRENCE('Pushbutton:1','Pushbutton:1',
'Pushbutton:1',#902,#903,'Pushbutton:1');
#18=NEXT_ASSEMBLY_USAGE_OCCURRENCE('Pushbutton:2','Pushbutton:2',
'Pushbutton:2',#902,#903,'Pushbutton:2');
#19=SHAPE_REPRESENTATION_RELATIONSHIP('SRR','None',#900,#21);
#20=SHAPE_REPRESENTATION_RELATIONSHIP('SRR','None',#899,#22);
#21=ADVANCED_BREP_SHAPE_REPRESENTATION('',(#25),#887);
#22=ADVANCED_BREP_SHAPE_REPRESENTATION('',(#26),#886);
#23=STYLED_ITEM('',(#914),#25);
#24=STYLED_ITEM('',(#913),#26);
#25=MANIFOLD_SOLID_BREP('Body1',#517);
#26=MANIFOLD_SOLID_BREP('Body1',#518);
#27=FACE_BOUND('',#110,.T.);
#28=FACE_BOUND('',#112,.T.);
#29=TOROIDAL_SURFACE('',#541,1.3,0.2);
#30=TOROIDAL_SURFACE('',#547,1.3,0.2);
#31=CIRCLE('',#539,0.2);
#32=CIRCLE('',#540,0.2);
#33=CIRCLE('',#542,0.200000000000003);
#34=CIRCLE('',#543,1.3);
#35=CIRCLE('',#544,1.5);
#36=CIRCLE('',#546,0.2);
#37=CIRCLE('',#548,1.3);
#38=CIRCLE('',#549,1.5);
#39=CIRCLE('',#551,1.5);
#40=CIRCLE('',#555,1.5);
#41=CIRCLE('',#559,0.2);
#42=CIRCLE('',#560,0.2);
#43=CIRCLE('',#563,0.2);
#44=CIRCLE('',#564,0.2);
#45=CIRCLE('',#567,0.2);
#46=CIRCLE('',#568,0.2);
#47=CIRCLE('',#571,0.2);
#48=CIRCLE('',#572,0.2);
#49=CYLINDRICAL_SURFACE('',#538,0.2);
#50=CYLINDRICAL_SURFACE('',#545,0.2);
#51=CYLINDRICAL_SURFACE('',#550,1.5);
#52=CYLINDRICAL_SURFACE('',#554,1.5);
#53=CYLINDRICAL_SURFACE('',#558,0.2);
#54=CYLINDRICAL_SURFACE('',#562,0.2);
#55=CYLINDRICAL_SURFACE('',#566,0.2);
#56=CYLINDRICAL_SURFACE('',#570,0.2);
#57=FACE_OUTER_BOUND('',#87,.T.);
#58=FACE_OUTER_BOUND('',#88,.T.);
#59=FACE_OUTER_BOUND('',#89,.T.);
#60=FACE_OUTER_BOUND('',#90,.T.);
#61=FACE_OUTER_BOUND('',#91,.T.);
#62=FACE_OUTER_BOUND('',#92,.T.);
#63=FACE_OUTER_BOUND('',#93,.T.);
#64=FACE_OUTER_BOUND('',#94,.T.);
#65=FACE_OUTER_BOUND('',#95,.T.);
#66=FACE_OUTER_BOUND('',#96,.T.);
#67=FACE_OUTER_BOUND('',#97,.T.);
#68=FACE_OUTER_BOUND('',#98,.T.);
#69=FACE_OUTER_BOUND('',#99,.T.);
#70=FACE_OUTER_BOUND('',#100,.T.);
#71=FACE_OUTER_BOUND('',#101,.T.);
#72=FACE_OUTER_BOUND('',#102,.T.);
#73=FACE_OUTER_BOUND('',#103,.T.);
#74=FACE_OUTER_BOUND('',#104,.T.);
#75=FACE_OUTER_BOUND('',#105,.T.);
#76=FACE_OUTER_BOUND('',#106,.T.);
#77=FACE_OUTER_BOUND('',#107,.T.);
#78=FACE_OUTER_BOUND('',#108,.T.);
#79=FACE_OUTER_BOUND('',#109,.T.);
#80=FACE_OUTER_BOUND('',#111,.T.);
#81=FACE_OUTER_BOUND('',#113,.T.);
#82=FACE_OUTER_BOUND('',#114,.T.);
#83=FACE_OUTER_BOUND('',#115,.T.);
#84=FACE_OUTER_BOUND('',#116,.T.);
#85=FACE_OUTER_BOUND('',#117,.T.);
#86=FACE_OUTER_BOUND('',#118,.T.);
#87=EDGE_LOOP('',(#331,#332,#333,#334));
#88=EDGE_LOOP('',(#335,#336,#337,#338));
#89=EDGE_LOOP('',(#339,#340,#341,#342));
#90=EDGE_LOOP('',(#343,#344,#345,#346));
#91=EDGE_LOOP('',(#347,#348,#349,#350));
#92=EDGE_LOOP('',(#351,#352,#353,#354));
#93=EDGE_LOOP('',(#355,#356,#357,#358));
#94=EDGE_LOOP('',(#359,#360,#361,#362));
#95=EDGE_LOOP('',(#363,#364,#365,#366));
#96=EDGE_LOOP('',(#367,#368,#369,#370));
#97=EDGE_LOOP('',(#371,#372,#373,#374));
#98=EDGE_LOOP('',(#375,#376,#377,#378));
#99=EDGE_LOOP('',(#379,#380,#381,#382));
#100=EDGE_LOOP('',(#383,#384,#385,#386));
#101=EDGE_LOOP('',(#387,#388,#389,#390));
#102=EDGE_LOOP('',(#391,#392,#393,#394));
#103=EDGE_LOOP('',(#395,#396,#397,#398));
#104=EDGE_LOOP('',(#399,#400,#401,#402));
#105=EDGE_LOOP('',(#403,#404,#405,#406));
#106=EDGE_LOOP('',(#407,#408,#409,#410));
#107=EDGE_LOOP('',(#411,#412,#413,#414));
#108=EDGE_LOOP('',(#415,#416,#417,#418));
#109=EDGE_LOOP('',(#419,#420,#421,#422,#423,#424,#425,#426));
#110=EDGE_LOOP('',(#427,#428,#429,#430));
#111=EDGE_LOOP('',(#431,#432,#433,#434,#435,#436,#437,#438));
#112=EDGE_LOOP('',(#439,#440,#441,#442));
#113=EDGE_LOOP('',(#443,#444,#445,#446));
#114=EDGE_LOOP('',(#447,#448,#449,#450));
#115=EDGE_LOOP('',(#451,#452,#453,#454));
#116=EDGE_LOOP('',(#455,#456,#457,#458));
#117=EDGE_LOOP('',(#459,#460,#461,#462));
#118=EDGE_LOOP('',(#463,#464,#465,#466));
#119=LINE('',#742,#169);
#120=LINE('',#744,#170);
#121=LINE('',#746,#171);
#122=LINE('',#747,#172);
#123=LINE('',#750,#173);
#124=LINE('',#752,#174);
#125=LINE('',#753,#175);
#126=LINE('',#756,#176);
#127=LINE('',#758,#177);
#128=LINE('',#759,#178);
#129=LINE('',#761,#179);
#130=LINE('',#762,#180);
#131=LINE('',#769,#181);
#132=LINE('',#772,#182);
#133=LINE('',#783,#183);
#134=LINE('',#784,#184);
#135=LINE('',#790,#185);
#136=LINE('',#793,#186);
#137=LINE('',#796,#187);
#138=LINE('',#797,#188);
#139=LINE('',#801,#189);
#140=LINE('',#804,#190);
#141=LINE('',#808,#191);
#142=LINE('',#810,#192);
#143=LINE('',#812,#193);
#144=LINE('',#813,#194);
#145=LINE('',#819,#195);
#146=LINE('',#822,#196);
#147=LINE('',#824,#197);
#148=LINE('',#825,#198);
#149=LINE('',#831,#199);
#150=LINE('',#834,#200);
#151=LINE('',#836,#201);
#152=LINE('',#837,#202);
#153=LINE('',#843,#203);
#154=LINE('',#846,#204);
#155=LINE('',#848,#205);
#156=LINE('',#849,#206);
#157=LINE('',#858,#207);
#158=LINE('',#860,#208);
#159=LINE('',#862,#209);
#160=LINE('',#863,#210);
#161=LINE('',#866,#211);
#162=LINE('',#868,#212);
#163=LINE('',#869,#213);
#164=LINE('',#872,#214);
#165=LINE('',#874,#215);
#166=LINE('',#875,#216);
#167=LINE('',#877,#217);
#168=LINE('',#878,#218);
#169=VECTOR('',#589,10.);
#170=VECTOR('',#590,10.);
#171=VECTOR('',#591,10.);
#172=VECTOR('',#592,10.);
#173=VECTOR('',#595,10.);
#174=VECTOR('',#596,10.);
#175=VECTOR('',#597,10.);
#176=VECTOR('',#600,10.);
#177=VECTOR('',#601,10.);
#178=VECTOR('',#602,10.);
#179=VECTOR('',#605,10.);
#180=VECTOR('',#606,10.);
#181=VECTOR('',#613,10.);
#182=VECTOR('',#616,10.);
#183=VECTOR('',#629,10.);
#184=VECTOR('',#630,10.);
#185=VECTOR('',#639,10.);
#186=VECTOR('',#642,10.);
#187=VECTOR('',#645,10.);
#188=VECTOR('',#646,10.);
#189=VECTOR('',#651,10.);
#190=VECTOR('',#656,10.);
#191=VECTOR('',#659,10.);
#192=VECTOR('',#660,10.);
#193=VECTOR('',#661,10.);
#194=VECTOR('',#662,10.);
#195=VECTOR('',#669,10.);
#196=VECTOR('',#672,10.);
#197=VECTOR('',#673,10.);
#198=VECTOR('',#674,10.);
#199=VECTOR('',#681,10.);
#200=VECTOR('',#684,10.);
#201=VECTOR('',#685,10.);
#202=VECTOR('',#686,10.);
#203=VECTOR('',#693,10.);
#204=VECTOR('',#696,10.);
#205=VECTOR('',#697,10.);
#206=VECTOR('',#698,10.);
#207=VECTOR('',#711,10.);
#208=VECTOR('',#712,10.);
#209=VECTOR('',#713,10.);
#210=VECTOR('',#714,10.);
#211=VECTOR('',#717,10.);
#212=VECTOR('',#718,10.);
#213=VECTOR('',#719,10.);
#214=VECTOR('',#722,10.);
#215=VECTOR('',#723,10.);
#216=VECTOR('',#724,10.);
#217=VECTOR('',#727,10.);
#218=VECTOR('',#728,10.);
#219=VERTEX_POINT('',#740);
#220=VERTEX_POINT('',#741);
#221=VERTEX_POINT('',#743);
#222=VERTEX_POINT('',#745);
#223=VERTEX_POINT('',#749);
#224=VERTEX_POINT('',#751);
#225=VERTEX_POINT('',#755);
#226=VERTEX_POINT('',#757);
#227=VERTEX_POINT('',#765);
#228=VERTEX_POINT('',#766);
#229=VERTEX_POINT('',#768);
#230=VERTEX_POINT('',#770);
#231=VERTEX_POINT('',#774);
#232=VERTEX_POINT('',#775);
#233=VERTEX_POINT('',#780);
#234=VERTEX_POINT('',#781);
#235=VERTEX_POINT('',#789);
#236=VERTEX_POINT('',#791);
#237=VERTEX_POINT('',#795);
#238=VERTEX_POINT('',#800);
#239=VERTEX_POINT('',#806);
#240=VERTEX_POINT('',#807);
#241=VERTEX_POINT('',#809);
#242=VERTEX_POINT('',#811);
#243=VERTEX_POINT('',#815);
#244=VERTEX_POINT('',#817);
#245=VERTEX_POINT('',#821);
#246=VERTEX_POINT('',#823);
#247=VERTEX_POINT('',#827);
#248=VERTEX_POINT('',#829);
#249=VERTEX_POINT('',#833);
#250=VERTEX_POINT('',#835);
#251=VERTEX_POINT('',#839);
#252=VERTEX_POINT('',#841);
#253=VERTEX_POINT('',#845);
#254=VERTEX_POINT('',#847);
#255=VERTEX_POINT('',#856);
#256=VERTEX_POINT('',#857);
#257=VERTEX_POINT('',#859);
#258=VERTEX_POINT('',#861);
#259=VERTEX_POINT('',#865);
#260=VERTEX_POINT('',#867);
#261=VERTEX_POINT('',#871);
#262=VERTEX_POINT('',#873);
#263=EDGE_CURVE('',#219,#220,#119,.T.);
#264=EDGE_CURVE('',#219,#221,#120,.T.);
#265=EDGE_CURVE('',#221,#222,#121,.T.);
#266=EDGE_CURVE('',#222,#220,#122,.T.);
#267=EDGE_CURVE('',#221,#223,#123,.T.);
#268=EDGE_CURVE('',#224,#219,#124,.F.);
#269=EDGE_CURVE('',#223,#224,#125,.T.);
#270=EDGE_CURVE('',#220,#225,#126,.F.);
#271=EDGE_CURVE('',#222,#226,#127,.F.);
#272=EDGE_CURVE('',#225,#226,#128,.T.);
#273=EDGE_CURVE('',#225,#224,#129,.F.);
#274=EDGE_CURVE('',#226,#223,#130,.F.);
#275=EDGE_CURVE('',#227,#228,#31,.T.);
#276=EDGE_CURVE('',#228,#229,#131,.T.);
#277=EDGE_CURVE('',#229,#230,#32,.T.);
#278=EDGE_CURVE('',#230,#227,#132,.T.);
#279=EDGE_CURVE('',#231,#232,#33,.T.);
#280=EDGE_CURVE('',#232,#230,#34,.T.);
#281=EDGE_CURVE('',#229,#231,#35,.T.);
#282=EDGE_CURVE('',#233,#234,#36,.T.);
#283=EDGE_CURVE('',#234,#232,#133,.T.);
#284=EDGE_CURVE('',#231,#233,#134,.T.);
#285=EDGE_CURVE('',#227,#234,#37,.T.);
#286=EDGE_CURVE('',#233,#228,#38,.T.);
#287=EDGE_CURVE('',#235,#229,#135,.T.);
#288=EDGE_CURVE('',#236,#235,#39,.T.);
#289=EDGE_CURVE('',#236,#231,#136,.T.);
#290=EDGE_CURVE('',#237,#228,#137,.T.);
#291=EDGE_CURVE('',#235,#237,#138,.T.);
#292=EDGE_CURVE('',#238,#233,#139,.T.);
#293=EDGE_CURVE('',#237,#238,#40,.T.);
#294=EDGE_CURVE('',#238,#236,#140,.T.);
#295=EDGE_CURVE('',#239,#240,#141,.T.);
#296=EDGE_CURVE('',#240,#241,#142,.T.);
#297=EDGE_CURVE('',#242,#241,#143,.T.);
#298=EDGE_CURVE('',#239,#242,#144,.T.);
#299=EDGE_CURVE('',#243,#239,#41,.T.);
#300=EDGE_CURVE('',#244,#242,#42,.T.);
#301=EDGE_CURVE('',#243,#244,#145,.T.);
#302=EDGE_CURVE('',#245,#243,#146,.T.);
#303=EDGE_CURVE('',#246,#244,#147,.T.);
#304=EDGE_CURVE('',#245,#246,#148,.T.);
#305=EDGE_CURVE('',#247,#245,#43,.T.);
#306=EDGE_CURVE('',#248,#246,#44,.T.);
#307=EDGE_CURVE('',#247,#248,#149,.T.);
#308=EDGE_CURVE('',#249,#247,#150,.T.);
#309=EDGE_CURVE('',#250,#248,#151,.T.);
#310=EDGE_CURVE('',#249,#250,#152,.T.);
#311=EDGE_CURVE('',#251,#249,#45,.T.);
#312=EDGE_CURVE('',#252,#250,#46,.T.);
#313=EDGE_CURVE('',#251,#252,#153,.T.);
#314=EDGE_CURVE('',#253,#251,#154,.T.);
#315=EDGE_CURVE('',#254,#252,#155,.T.);
#316=EDGE_CURVE('',#253,#254,#156,.T.);
#317=EDGE_CURVE('',#240,#253,#47,.T.);
#318=EDGE_CURVE('',#241,#254,#48,.T.);
#319=EDGE_CURVE('',#255,#256,#157,.T.);
#320=EDGE_CURVE('',#256,#257,#158,.T.);
#321=EDGE_CURVE('',#258,#257,#159,.T.);
#322=EDGE_CURVE('',#255,#258,#160,.T.);
#323=EDGE_CURVE('',#259,#255,#161,.T.);
#324=EDGE_CURVE('',#260,#258,#162,.T.);
#325=EDGE_CURVE('',#259,#260,#163,.T.);
#326=EDGE_CURVE('',#261,#259,#164,.T.);
#327=EDGE_CURVE('',#262,#260,#165,.T.);
#328=EDGE_CURVE('',#261,#262,#166,.T.);
#329=EDGE_CURVE('',#256,#261,#167,.T.);
#330=EDGE_CURVE('',#257,#262,#168,.T.);
#331=ORIENTED_EDGE('',*,*,#263,.F.);
#332=ORIENTED_EDGE('',*,*,#264,.T.);
#333=ORIENTED_EDGE('',*,*,#265,.T.);
#334=ORIENTED_EDGE('',*,*,#266,.T.);
#335=ORIENTED_EDGE('',*,*,#267,.F.);
#336=ORIENTED_EDGE('',*,*,#264,.F.);
#337=ORIENTED_EDGE('',*,*,#268,.F.);
#338=ORIENTED_EDGE('',*,*,#269,.F.);
#339=ORIENTED_EDGE('',*,*,#270,.F.);
#340=ORIENTED_EDGE('',*,*,#266,.F.);
#341=ORIENTED_EDGE('',*,*,#271,.T.);
#342=ORIENTED_EDGE('',*,*,#272,.F.);
#343=ORIENTED_EDGE('',*,*,#273,.F.);
#344=ORIENTED_EDGE('',*,*,#272,.T.);
#345=ORIENTED_EDGE('',*,*,#274,.T.);
#346=ORIENTED_EDGE('',*,*,#269,.T.);
#347=ORIENTED_EDGE('',*,*,#265,.F.);
#348=ORIENTED_EDGE('',*,*,#267,.T.);
#349=ORIENTED_EDGE('',*,*,#274,.F.);
#350=ORIENTED_EDGE('',*,*,#271,.F.);
#351=ORIENTED_EDGE('',*,*,#275,.T.);
#352=ORIENTED_EDGE('',*,*,#276,.T.);
#353=ORIENTED_EDGE('',*,*,#277,.T.);
#354=ORIENTED_EDGE('',*,*,#278,.T.);
#355=ORIENTED_EDGE('',*,*,#279,.T.);
#356=ORIENTED_EDGE('',*,*,#280,.T.);
#357=ORIENTED_EDGE('',*,*,#277,.F.);
#358=ORIENTED_EDGE('',*,*,#281,.T.);
#359=ORIENTED_EDGE('',*,*,#282,.T.);
#360=ORIENTED_EDGE('',*,*,#283,.T.);
#361=ORIENTED_EDGE('',*,*,#279,.F.);
#362=ORIENTED_EDGE('',*,*,#284,.T.);
#363=ORIENTED_EDGE('',*,*,#275,.F.);
#364=ORIENTED_EDGE('',*,*,#285,.T.);
#365=ORIENTED_EDGE('',*,*,#282,.F.);
#366=ORIENTED_EDGE('',*,*,#286,.T.);
#367=ORIENTED_EDGE('',*,*,#281,.F.);
#368=ORIENTED_EDGE('',*,*,#287,.F.);
#369=ORIENTED_EDGE('',*,*,#288,.F.);
#370=ORIENTED_EDGE('',*,*,#289,.T.);
#371=ORIENTED_EDGE('',*,*,#276,.F.);
#372=ORIENTED_EDGE('',*,*,#290,.F.);
#373=ORIENTED_EDGE('',*,*,#291,.F.);
#374=ORIENTED_EDGE('',*,*,#287,.T.);
#375=ORIENTED_EDGE('',*,*,#278,.F.);
#376=ORIENTED_EDGE('',*,*,#280,.F.);
#377=ORIENTED_EDGE('',*,*,#283,.F.);
#378=ORIENTED_EDGE('',*,*,#285,.F.);
#379=ORIENTED_EDGE('',*,*,#286,.F.);
#380=ORIENTED_EDGE('',*,*,#292,.F.);
#381=ORIENTED_EDGE('',*,*,#293,.F.);
#382=ORIENTED_EDGE('',*,*,#290,.T.);
#383=ORIENTED_EDGE('',*,*,#284,.F.);
#384=ORIENTED_EDGE('',*,*,#289,.F.);
#385=ORIENTED_EDGE('',*,*,#294,.F.);
#386=ORIENTED_EDGE('',*,*,#292,.T.);
#387=ORIENTED_EDGE('',*,*,#295,.T.);
#388=ORIENTED_EDGE('',*,*,#296,.T.);
#389=ORIENTED_EDGE('',*,*,#297,.F.);
#390=ORIENTED_EDGE('',*,*,#298,.F.);
#391=ORIENTED_EDGE('',*,*,#299,.T.);
#392=ORIENTED_EDGE('',*,*,#298,.T.);
#393=ORIENTED_EDGE('',*,*,#300,.F.);
#394=ORIENTED_EDGE('',*,*,#301,.F.);
#395=ORIENTED_EDGE('',*,*,#302,.T.);
#396=ORIENTED_EDGE('',*,*,#301,.T.);
#397=ORIENTED_EDGE('',*,*,#303,.F.);
#398=ORIENTED_EDGE('',*,*,#304,.F.);
#399=ORIENTED_EDGE('',*,*,#305,.T.);
#400=ORIENTED_EDGE('',*,*,#304,.T.);
#401=ORIENTED_EDGE('',*,*,#306,.F.);
#402=ORIENTED_EDGE('',*,*,#307,.F.);
#403=ORIENTED_EDGE('',*,*,#308,.T.);
#404=ORIENTED_EDGE('',*,*,#307,.T.);
#405=ORIENTED_EDGE('',*,*,#309,.F.);
#406=ORIENTED_EDGE('',*,*,#310,.F.);
#407=ORIENTED_EDGE('',*,*,#311,.T.);
#408=ORIENTED_EDGE('',*,*,#310,.T.);
#409=ORIENTED_EDGE('',*,*,#312,.F.);
#410=ORIENTED_EDGE('',*,*,#313,.F.);
#411=ORIENTED_EDGE('',*,*,#314,.T.);
#412=ORIENTED_EDGE('',*,*,#313,.T.);
#413=ORIENTED_EDGE('',*,*,#315,.F.);
#414=ORIENTED_EDGE('',*,*,#316,.F.);
#415=ORIENTED_EDGE('',*,*,#317,.T.);
#416=ORIENTED_EDGE('',*,*,#316,.T.);
#417=ORIENTED_EDGE('',*,*,#318,.F.);
#418=ORIENTED_EDGE('',*,*,#296,.F.);
#419=ORIENTED_EDGE('',*,*,#318,.T.);
#420=ORIENTED_EDGE('',*,*,#315,.T.);
#421=ORIENTED_EDGE('',*,*,#312,.T.);
#422=ORIENTED_EDGE('',*,*,#309,.T.);
#423=ORIENTED_EDGE('',*,*,#306,.T.);
#424=ORIENTED_EDGE('',*,*,#303,.T.);
#425=ORIENTED_EDGE('',*,*,#300,.T.);
#426=ORIENTED_EDGE('',*,*,#297,.T.);
#427=ORIENTED_EDGE('',*,*,#288,.T.);
#428=ORIENTED_EDGE('',*,*,#291,.T.);
#429=ORIENTED_EDGE('',*,*,#293,.T.);
#430=ORIENTED_EDGE('',*,*,#294,.T.);
#431=ORIENTED_EDGE('',*,*,#317,.F.);
#432=ORIENTED_EDGE('',*,*,#295,.F.);
#433=ORIENTED_EDGE('',*,*,#299,.F.);
#434=ORIENTED_EDGE('',*,*,#302,.F.);
#435=ORIENTED_EDGE('',*,*,#305,.F.);
#436=ORIENTED_EDGE('',*,*,#308,.F.);
#437=ORIENTED_EDGE('',*,*,#311,.F.);
#438=ORIENTED_EDGE('',*,*,#314,.F.);
#439=ORIENTED_EDGE('',*,*,#270,.T.);
#440=ORIENTED_EDGE('',*,*,#273,.T.);
#441=ORIENTED_EDGE('',*,*,#268,.T.);
#442=ORIENTED_EDGE('',*,*,#263,.T.);
#443=ORIENTED_EDGE('',*,*,#319,.T.);
#444=ORIENTED_EDGE('',*,*,#320,.T.);
#445=ORIENTED_EDGE('',*,*,#321,.F.);
#446=ORIENTED_EDGE('',*,*,#322,.F.);
#447=ORIENTED_EDGE('',*,*,#323,.T.);
#448=ORIENTED_EDGE('',*,*,#322,.T.);
#449=ORIENTED_EDGE('',*,*,#324,.F.);
#450=ORIENTED_EDGE('',*,*,#325,.F.);
#451=ORIENTED_EDGE('',*,*,#326,.T.);
#452=ORIENTED_EDGE('',*,*,#325,.T.);
#453=ORIENTED_EDGE('',*,*,#327,.F.);
#454=ORIENTED_EDGE('',*,*,#328,.F.);
#455=ORIENTED_EDGE('',*,*,#329,.T.);
#456=ORIENTED_EDGE('',*,*,#328,.T.);
#457=ORIENTED_EDGE('',*,*,#330,.F.);
#458=ORIENTED_EDGE('',*,*,#320,.F.);
#459=ORIENTED_EDGE('',*,*,#329,.F.);
#460=ORIENTED_EDGE('',*,*,#319,.F.);
#461=ORIENTED_EDGE('',*,*,#323,.F.);
#462=ORIENTED_EDGE('',*,*,#326,.F.);
#463=ORIENTED_EDGE('',*,*,#330,.T.);
#464=ORIENTED_EDGE('',*,*,#327,.T.);
#465=ORIENTED_EDGE('',*,*,#324,.T.);
#466=ORIENTED_EDGE('',*,*,#321,.T.);
#467=PLANE('',#533);
#468=PLANE('',#534);
#469=PLANE('',#535);
#470=PLANE('',#536);
#471=PLANE('',#537);
#472=PLANE('',#552);
#473=PLANE('',#553);
#474=PLANE('',#556);
#475=PLANE('',#557);
#476=PLANE('',#561);
#477=PLANE('',#565);
#478=PLANE('',#569);
#479=PLANE('',#573);
#480=PLANE('',#574);
#481=PLANE('',#575);
#482=PLANE('',#576);
#483=PLANE('',#577);
#484=PLANE('',#578);
#485=PLANE('',#579);
#486=PLANE('',#580);
#487=ADVANCED_FACE('',(#57),#467,.T.);
#488=ADVANCED_FACE('',(#58),#468,.F.);
#489=ADVANCED_FACE('',(#59),#469,.F.);
#490=ADVANCED_FACE('',(#60),#470,.F.);
#491=ADVANCED_FACE('',(#61),#471,.F.);
#492=ADVANCED_FACE('',(#62),#49,.T.);
#493=ADVANCED_FACE('',(#63),#29,.T.);
#494=ADVANCED_FACE('',(#64),#50,.T.);
#495=ADVANCED_FACE('',(#65),#30,.T.);
#496=ADVANCED_FACE('',(#66),#51,.T.);
#497=ADVANCED_FACE('',(#67),#472,.T.);
#498=ADVANCED_FACE('',(#68),#473,.T.);
#499=ADVANCED_FACE('',(#69),#52,.T.);
#500=ADVANCED_FACE('',(#70),#474,.T.);
#501=ADVANCED_FACE('',(#71),#475,.T.);
#502=ADVANCED_FACE('',(#72),#53,.T.);
#503=ADVANCED_FACE('',(#73),#476,.T.);
#504=ADVANCED_FACE('',(#74),#54,.T.);
#505=ADVANCED_FACE('',(#75),#477,.T.);
#506=ADVANCED_FACE('',(#76),#55,.T.);
#507=ADVANCED_FACE('',(#77),#478,.T.);
#508=ADVANCED_FACE('',(#78),#56,.T.);
#509=ADVANCED_FACE('',(#79,#27),#479,.T.);
#510=ADVANCED_FACE('',(#80,#28),#480,.F.);
#511=ADVANCED_FACE('',(#81),#481,.T.);
#512=ADVANCED_FACE('',(#82),#482,.T.);
#513=ADVANCED_FACE('',(#83),#483,.T.);
#514=ADVANCED_FACE('',(#84),#484,.T.);
#515=ADVANCED_FACE('',(#85),#485,.T.);
#516=ADVANCED_FACE('',(#86),#486,.T.);
#517=CLOSED_SHELL('',(#487,#488,#489,#490,#491,#492,#493,#494,#495,#496,
#497,#498,#499,#500,#501,#502,#503,#504,#505,#506,#507,#508,#509,#510));
#518=CLOSED_SHELL('',(#511,#512,#513,#514,#515,#516));
#519=DERIVED_UNIT_ELEMENT(#521,1.);
#520=DERIVED_UNIT_ELEMENT(#890,-3.);
#521=(
MASS_UNIT()
NAMED_UNIT(*)
SI_UNIT(.KILO.,.GRAM.)
);
#522=DERIVED_UNIT((#519,#520));
#523=MEASURE_REPRESENTATION_ITEM('density measure',
POSITIVE_RATIO_MEASURE(7850.),#522);
#524=PROPERTY_DEFINITION_REPRESENTATION(#529,#526);
#525=PROPERTY_DEFINITION_REPRESENTATION(#530,#527);
#526=REPRESENTATION('material name',(#528),#887);
#527=REPRESENTATION('density',(#523),#887);
#528=DESCRIPTIVE_REPRESENTATION_ITEM('Steel','Steel');
#529=PROPERTY_DEFINITION('material property','material name',#903);
#530=PROPERTY_DEFINITION('material property','density of part',#903);
#531=AXIS2_PLACEMENT_3D('',#737,#583,#584);
#532=AXIS2_PLACEMENT_3D('',#738,#585,#586);
#533=AXIS2_PLACEMENT_3D('',#739,#587,#588);
#534=AXIS2_PLACEMENT_3D('',#748,#593,#594);
#535=AXIS2_PLACEMENT_3D('',#754,#598,#599);
#536=AXIS2_PLACEMENT_3D('',#760,#603,#604);
#537=AXIS2_PLACEMENT_3D('',#763,#607,#608);
#538=AXIS2_PLACEMENT_3D('',#764,#609,#610);
#539=AXIS2_PLACEMENT_3D('',#767,#611,#612);
#540=AXIS2_PLACEMENT_3D('',#771,#614,#615);
#541=AXIS2_PLACEMENT_3D('',#773,#617,#618);
#542=AXIS2_PLACEMENT_3D('',#776,#619,#620);
#543=AXIS2_PLACEMENT_3D('',#777,#621,#622);
#544=AXIS2_PLACEMENT_3D('',#778,#623,#624);
#545=AXIS2_PLACEMENT_3D('',#779,#625,#626);
#546=AXIS2_PLACEMENT_3D('',#782,#627,#628);
#547=AXIS2_PLACEMENT_3D('',#785,#631,#632);
#548=AXIS2_PLACEMENT_3D('',#786,#633,#634);
#549=AXIS2_PLACEMENT_3D('',#787,#635,#636);
#550=AXIS2_PLACEMENT_3D('',#788,#637,#638);
#551=AXIS2_PLACEMENT_3D('',#792,#640,#641);
#552=AXIS2_PLACEMENT_3D('',#794,#643,#644);
#553=AXIS2_PLACEMENT_3D('',#798,#647,#648);
#554=AXIS2_PLACEMENT_3D('',#799,#649,#650);
#555=AXIS2_PLACEMENT_3D('',#802,#652,#653);
#556=AXIS2_PLACEMENT_3D('',#803,#654,#655);
#557=AXIS2_PLACEMENT_3D('',#805,#657,#658);
#558=AXIS2_PLACEMENT_3D('',#814,#663,#664);
#559=AXIS2_PLACEMENT_3D('',#816,#665,#666);
#560=AXIS2_PLACEMENT_3D('',#818,#667,#668);
#561=AXIS2_PLACEMENT_3D('',#820,#670,#671);
#562=AXIS2_PLACEMENT_3D('',#826,#675,#676);
#563=AXIS2_PLACEMENT_3D('',#828,#677,#678);
#564=AXIS2_PLACEMENT_3D('',#830,#679,#680);
#565=AXIS2_PLACEMENT_3D('',#832,#682,#683);
#566=AXIS2_PLACEMENT_3D('',#838,#687,#688);
#567=AXIS2_PLACEMENT_3D('',#840,#689,#690);
#568=AXIS2_PLACEMENT_3D('',#842,#691,#692);
#569=AXIS2_PLACEMENT_3D('',#844,#694,#695);
#570=AXIS2_PLACEMENT_3D('',#850,#699,#700);
#571=AXIS2_PLACEMENT_3D('',#851,#701,#702);
#572=AXIS2_PLACEMENT_3D('',#852,#703,#704);
#573=AXIS2_PLACEMENT_3D('',#853,#705,#706);
#574=AXIS2_PLACEMENT_3D('',#854,#707,#708);
#575=AXIS2_PLACEMENT_3D('',#855,#709,#710);
#576=AXIS2_PLACEMENT_3D('',#864,#715,#716);
#577=AXIS2_PLACEMENT_3D('',#870,#720,#721);
#578=AXIS2_PLACEMENT_3D('',#876,#725,#726);
#579=AXIS2_PLACEMENT_3D('',#879,#729,#730);
#580=AXIS2_PLACEMENT_3D('',#880,#731,#732);
#581=AXIS2_PLACEMENT_3D('',#881,#733,#734);
#582=AXIS2_PLACEMENT_3D('',#882,#735,#736);
#583=DIRECTION('axis',(0.,0.,1.));
#584=DIRECTION('refdir',(1.,0.,0.));
#585=DIRECTION('axis',(0.,0.,1.));
#586=DIRECTION('refdir',(1.,0.,0.));
#587=DIRECTION('center_axis',(5.20417042793041E-17,1.1074955728365E-16,
1.));
#588=DIRECTION('ref_axis',(1.,-2.53201652599944E-17,-5.20417042793041E-17));
#589=DIRECTION('',(0.,1.,-1.1074955728365E-16));
#590=DIRECTION('',(0.707106781186548,0.707106781186548,-1.15110804969078E-16));
#591=DIRECTION('',(2.53201652599944E-17,1.,-1.1074955728365E-16));
#592=DIRECTION('',(-0.707106781186548,0.707106781186548,-4.15127209682757E-17));
#593=DIRECTION('center_axis',(0.707106781186548,-0.707106781186548,4.15127209682757E-17));
#594=DIRECTION('ref_axis',(-5.20417042793041E-17,-1.1074955728365E-16,-1.));
#595=DIRECTION('',(5.20417042793041E-17,1.1074955728365E-16,1.));
#596=DIRECTION('',(0.,5.87078530043454E-17,1.));
#597=DIRECTION('',(-0.707106781186548,-0.707106781186548,1.15110804969078E-16));
#598=DIRECTION('center_axis',(0.707106781186548,0.707106781186548,-1.15110804969078E-16));
#599=DIRECTION('ref_axis',(-5.20417042793041E-17,-1.1074955728365E-16,-1.));
#600=DIRECTION('',(0.,-1.62791261562954E-16,-1.));
#601=DIRECTION('',(-5.20417042793041E-17,-1.1074955728365E-16,-1.));
#602=DIRECTION('',(0.707106781186548,-0.707106781186548,4.15127209682757E-17));
#603=DIRECTION('center_axis',(5.20417042793041E-17,1.1074955728365E-16,
1.));
#604=DIRECTION('ref_axis',(1.,-2.53201652599944E-17,-5.20417042793041E-17));
#605=DIRECTION('',(0.,1.,-1.1074955728365E-16));
#606=DIRECTION('',(2.53201652599944E-17,1.,-1.1074955728365E-16));
#607=DIRECTION('center_axis',(1.,-2.53201652599944E-17,-5.20417042793041E-17));
#608=DIRECTION('ref_axis',(5.20417042793041E-17,1.1074955728365E-16,1.));
#609=DIRECTION('center_axis',(0.,-1.,-1.38777878078145E-16));
#610=DIRECTION('ref_axis',(0.707106781186548,0.,0.707106781186548));
#611=DIRECTION('center_axis',(0.,-1.,0.));
#612=DIRECTION('ref_axis',(1.,0.,0.));
#613=DIRECTION('',(0.,-1.,-1.38777878078145E-16));
#614=DIRECTION('center_axis',(0.,1.,0.));
#615=DIRECTION('ref_axis',(0.,0.,1.));
#616=DIRECTION('',(0.,1.,1.38777878078145E-16));
#617=DIRECTION('center_axis',(1.,0.,0.));
#618=DIRECTION('ref_axis',(0.,0.,-1.));
#619=DIRECTION('center_axis',(0.,-1.,-6.93889390390712E-16));
#620=DIRECTION('ref_axis',(0.,6.93889390390712E-16,-1.));
#621=DIRECTION('center_axis',(-1.,0.,0.));
#622=DIRECTION('ref_axis',(0.,-1.,1.5375092525742E-16));
#623=DIRECTION('center_axis',(1.,0.,0.));
#624=DIRECTION('ref_axis',(0.,-1.,1.5375092525742E-16));
#625=DIRECTION('center_axis',(0.,1.,0.));
#626=DIRECTION('ref_axis',(0.707106781186548,0.,-0.707106781186548));
#627=DIRECTION('center_axis',(0.,-1.,0.));
#628=DIRECTION('ref_axis',(0.,0.,-1.));
#629=DIRECTION('',(0.,-1.,0.));
#630=DIRECTION('',(0.,1.,0.));
#631=DIRECTION('center_axis',(1.,0.,0.));
#632=DIRECTION('ref_axis',(0.,0.,-1.));
#633=DIRECTION('center_axis',(-1.,0.,0.));
#634=DIRECTION('ref_axis',(0.,1.,1.97819700310121E-16));
#635=DIRECTION('center_axis',(1.,0.,0.));
#636=DIRECTION('ref_axis',(0.,1.,1.97819700310121E-16));
#637=DIRECTION('center_axis',(1.,0.,0.));
#638=DIRECTION('ref_axis',(0.,1.20274161001059E-15,1.));
#639=DIRECTION('',(1.,0.,0.));
#640=DIRECTION('center_axis',(-1.,0.,0.));
#641=DIRECTION('ref_axis',(0.,1.20274161001059E-15,1.));
#642=DIRECTION('',(1.,0.,0.));
#643=DIRECTION('center_axis',(0.,-1.38777878078145E-16,1.));
#644=DIRECTION('ref_axis',(0.,-1.,-1.38777878078145E-16));
#645=DIRECTION('',(1.,0.,0.));
#646=DIRECTION('',(0.,1.,1.38777878078145E-16));
#647=DIRECTION('center_axis',(1.,0.,0.));
#648=DIRECTION('ref_axis',(0.,1.,0.));
#649=DIRECTION('center_axis',(1.,0.,0.));
#650=DIRECTION('ref_axis',(0.,-1.85037170770859E-16,-1.));
#651=DIRECTION('',(1.,0.,0.));
#652=DIRECTION('center_axis',(-1.,0.,0.));
#653=DIRECTION('ref_axis',(0.,-1.85037170770859E-16,-1.));
#654=DIRECTION('center_axis',(0.,0.,-1.));
#655=DIRECTION('ref_axis',(0.,1.,0.));
#656=DIRECTION('',(0.,-1.,0.));
#657=DIRECTION('center_axis',(0.,-1.,0.));
#658=DIRECTION('ref_axis',(0.,0.,-1.));
#659=DIRECTION('',(0.,0.,-1.));
#660=DIRECTION('',(1.,0.,0.));
#661=DIRECTION('',(0.,0.,-1.));
#662=DIRECTION('',(1.,0.,0.));
#663=DIRECTION('center_axis',(1.,0.,0.));
#664=DIRECTION('ref_axis',(0.,0.,1.));
#665=DIRECTION('center_axis',(1.,0.,0.));
#666=DIRECTION('ref_axis',(0.,0.,1.));
#667=DIRECTION('center_axis',(1.,0.,0.));
#668=DIRECTION('ref_axis',(0.,0.,1.));
#669=DIRECTION('',(1.,0.,0.));
#670=DIRECTION('center_axis',(0.,0.,1.));
#671=DIRECTION('ref_axis',(0.,-1.,0.));
#672=DIRECTION('',(0.,-1.,0.));
#673=DIRECTION('',(0.,-1.,0.));
#674=DIRECTION('',(1.,0.,0.));
#675=DIRECTION('center_axis',(1.,0.,0.));
#676=DIRECTION('ref_axis',(0.,1.,1.38777878078144E-15));
#677=DIRECTION('center_axis',(1.,0.,0.));
#678=DIRECTION('ref_axis',(0.,1.,1.38777878078144E-15));
#679=DIRECTION('center_axis',(1.,0.,0.));
#680=DIRECTION('ref_axis',(0.,1.,1.38777878078144E-15));
#681=DIRECTION('',(1.,0.,0.));
#682=DIRECTION('center_axis',(0.,1.,0.));
#683=DIRECTION('ref_axis',(0.,0.,1.));
#684=DIRECTION('',(0.,0.,1.));
#685=DIRECTION('',(0.,0.,1.));
#686=DIRECTION('',(1.,0.,0.));
#687=DIRECTION('center_axis',(1.,0.,0.));
#688=DIRECTION('ref_axis',(0.,0.,-1.));
#689=DIRECTION('center_axis',(1.,0.,0.));
#690=DIRECTION('ref_axis',(0.,0.,-1.));
#691=DIRECTION('center_axis',(1.,0.,0.));
#692=DIRECTION('ref_axis',(0.,0.,-1.));
#693=DIRECTION('',(1.,0.,0.));
#694=DIRECTION('center_axis',(0.,0.,-1.));
#695=DIRECTION('ref_axis',(0.,1.,0.));
#696=DIRECTION('',(0.,1.,0.));
#697=DIRECTION('',(0.,1.,0.));
#698=DIRECTION('',(1.,0.,0.));
#699=DIRECTION('center_axis',(1.,0.,0.));
#700=DIRECTION('ref_axis',(0.,-1.,-1.38777878078144E-15));
#701=DIRECTION('center_axis',(1.,0.,0.));
#702=DIRECTION('ref_axis',(0.,-1.,-1.38777878078144E-15));
#703=DIRECTION('center_axis',(1.,0.,0.));
#704=DIRECTION('ref_axis',(0.,-1.,-1.38777878078144E-15));
#705=DIRECTION('center_axis',(1.,0.,0.));
#706=DIRECTION('ref_axis',(0.,1.,0.));
#707=DIRECTION('center_axis',(1.,0.,0.));
#708=DIRECTION('ref_axis',(0.,1.,0.));
#709=DIRECTION('center_axis',(0.,1.,0.));
#710=DIRECTION('ref_axis',(0.,0.,-1.));
#711=DIRECTION('',(0.,0.,-1.));
#712=DIRECTION('',(-1.,0.,0.));
#713=DIRECTION('',(0.,0.,-1.));
#714=DIRECTION('',(-1.,0.,0.));
#715=DIRECTION('center_axis',(0.,0.,1.));
#716=DIRECTION('ref_axis',(3.70103432076753E-62,1.,0.));
#717=DIRECTION('',(3.70103432076753E-62,1.,0.));
#718=DIRECTION('',(3.70103432076753E-62,1.,0.));
#719=DIRECTION('',(-1.,0.,0.));
#720=DIRECTION('center_axis',(0.,-1.,0.));
#721=DIRECTION('ref_axis',(-6.16839053461272E-62,0.,1.));
#722=DIRECTION('',(-6.16839053461272E-62,0.,1.));
#723=DIRECTION('',(-6.16839053461272E-62,0.,1.));
#724=DIRECTION('',(-1.,0.,0.));
#725=DIRECTION('center_axis',(0.,0.,-1.));
#726=DIRECTION('ref_axis',(0.,-1.,0.));
#727=DIRECTION('',(0.,-1.,0.));
#728=DIRECTION('',(0.,-1.,0.));
#729=DIRECTION('center_axis',(1.,-3.70103432076753E-62,2.64555069802161E-62));
#730=DIRECTION('ref_axis',(3.70103432076753E-62,1.,0.));
#731=DIRECTION('center_axis',(-1.,0.,0.));
#732=DIRECTION('ref_axis',(0.,0.,1.));
#733=DIRECTION('',(6.54860219429824E-17,-2.72745178847554E-19,0.999999999999982));
#734=DIRECTION('',(-0.999999999999991,9.7144514654704E-17,5.55111512312572E-17));
#735=DIRECTION('',(6.20165749910288E-17,-2.72745178847553E-19,0.999999999999982));
#736=DIRECTION('',(-0.999999999999991,9.7144514654704E-17,5.20417042793037E-17));
#737=CARTESIAN_POINT('',(0.,0.,0.));
#738=CARTESIAN_POINT('',(0.,0.,0.));
#739=CARTESIAN_POINT('Origin',(-2.00000042017951,0.0201272317492984,-0.77024056183266));
#740=CARTESIAN_POINT('',(8.16743604055259E-17,-1.26472516181358,-0.770240561832659));
#741=CARTESIAN_POINT('',(-8.16743604055259E-17,1.30497962531218,-0.77024056183266));
#742=CARTESIAN_POINT('',(0.,0.00367572591660281,-0.77024056183266));
#743=CARTESIAN_POINT('',(0.559999579820493,-0.704725581993087,-0.770240561832659));
#744=CARTESIAN_POINT('',(-0.0325740133083141,-1.29729917512189,-0.77024056183266));
#745=CARTESIAN_POINT('',(0.559999579820493,0.744980045491684,-0.77024056183266));
#746=CARTESIAN_POINT('',(0.559999579820493,0.0201272317492983,-0.77024056183266));
#747=CARTESIAN_POINT('',(-0.0325740133083141,1.33755363862049,-0.77024056183266));
#748=CARTESIAN_POINT('Origin',(0.292425986691686,-0.972299175121894,0.0397594381673406));
#749=CARTESIAN_POINT('',(0.559999579820493,-0.704725581993087,0.849759438167341));
#750=CARTESIAN_POINT('',(0.559999579820493,-0.704725581993087,0.0397594381673406));
#751=CARTESIAN_POINT('',(-1.08442249799038E-17,-1.26472516181358,0.849759438167341));
#752=CARTESIAN_POINT('',(0.,-1.26472516181358,0.0169149009285006));
#753=CARTESIAN_POINT('',(-0.495074013308314,-1.75979917512189,0.849759438167341));
#754=CARTESIAN_POINT('Origin',(0.292425986691686,1.01255363862049,0.0397594381673404));
#755=CARTESIAN_POINT('',(1.08442249799038E-17,1.30497962531218,0.849759438167341));
#756=CARTESIAN_POINT('',(6.93889390390723E-17,1.30497962531218,0.0169149009285003));
#757=CARTESIAN_POINT('',(0.559999579820493,0.744980045491684,0.84975943816734));
#758=CARTESIAN_POINT('',(0.559999579820493,0.744980045491684,0.0397594381673404));
#759=CARTESIAN_POINT('',(-0.495074013308314,1.80005363862049,0.849759438167341));
#760=CARTESIAN_POINT('Origin',(-3.85000042017951,0.0201272317492986,0.849759438167341));
#761=CARTESIAN_POINT('',(0.,0.00367572591660302,0.849759438167341));
#762=CARTESIAN_POINT('',(0.559999579820493,0.0201272317492985,0.849759438167341));
#763=CARTESIAN_POINT('Origin',(0.559999579820493,0.0201272317492984,0.0397594381673405));
#764=CARTESIAN_POINT('Origin',(4.3,0.499999944120646,1.29999996647239));
#765=CARTESIAN_POINT('',(4.5,0.999999944120646,1.29999996647239));
#766=CARTESIAN_POINT('',(4.3,0.999999944120646,1.49999996647239));
#767=CARTESIAN_POINT('Origin',(4.3,0.999999944120646,1.29999996647239));
#768=CARTESIAN_POINT('',(4.3,-1.00000005587935,1.49999996647239));
#769=CARTESIAN_POINT('',(4.3,0.499999944120646,1.49999996647239));
#770=CARTESIAN_POINT('',(4.5,-1.00000005587935,1.29999996647239));
#771=CARTESIAN_POINT('Origin',(4.3,-1.00000005587935,1.29999996647239));
#772=CARTESIAN_POINT('',(4.5,0.499999944120646,1.29999996647239));
#773=CARTESIAN_POINT('Origin',(4.3,-1.00000005587936,-3.35276112428673E-8));
#774=CARTESIAN_POINT('',(4.3,-1.00000005587935,-1.50000003352761));
#775=CARTESIAN_POINT('',(4.5,-1.00000005587935,-1.30000003352761));
#776=CARTESIAN_POINT('Origin',(4.3,-1.00000005587935,-1.30000003352761));
#777=CARTESIAN_POINT('Origin',(4.5,-1.00000005587936,-3.35276112428673E-8));
#778=CARTESIAN_POINT('Origin',(4.3,-1.00000005587936,-3.35276112428673E-8));
#779=CARTESIAN_POINT('Origin',(4.3,-0.500000055879354,-1.30000003352761));
#780=CARTESIAN_POINT('',(4.3,0.999999944120645,-1.50000003352761));
#781=CARTESIAN_POINT('',(4.5,0.999999944120645,-1.30000003352761));
#782=CARTESIAN_POINT('Origin',(4.3,0.999999944120645,-1.30000003352761));
#783=CARTESIAN_POINT('',(4.5,-0.500000055879354,-1.30000003352761));
#784=CARTESIAN_POINT('',(4.3,-0.500000055879354,-1.50000003352761));
#785=CARTESIAN_POINT('Origin',(4.3,0.999999944120646,-3.35276129082018E-8));
#786=CARTESIAN_POINT('Origin',(4.5,0.999999944120646,-3.35276129082018E-8));
#787=CARTESIAN_POINT('Origin',(4.3,0.999999944120646,-3.35276129082018E-8));
#788=CARTESIAN_POINT('Origin',(0.,-1.00000005587936,-3.35276112428673E-8));
#789=CARTESIAN_POINT('',(1.,-1.00000005587935,1.49999996647239));
#790=CARTESIAN_POINT('',(0.,-1.00000005587935,1.49999996647239));
#791=CARTESIAN_POINT('',(1.,-1.00000005587935,-1.50000003352761));
#792=CARTESIAN_POINT('Origin',(1.,-1.00000005587936,-3.35276112428673E-8));
#793=CARTESIAN_POINT('',(0.,-1.00000005587935,-1.50000003352761));
#794=CARTESIAN_POINT('Origin',(0.,0.999999944120646,1.49999996647239));
#795=CARTESIAN_POINT('',(1.,0.999999944120646,1.49999996647239));
#796=CARTESIAN_POINT('',(0.,0.999999944120646,1.49999996647239));
#797=CARTESIAN_POINT('',(1.,0.999999944120646,1.49999996647239));
#798=CARTESIAN_POINT('Origin',(4.5,-5.58793544769287E-8,-3.35276129082018E-8));
#799=CARTESIAN_POINT('Origin',(0.,0.999999944120646,-3.35276129082018E-8));
#800=CARTESIAN_POINT('',(1.,0.999999944120645,-1.50000003352761));
#801=CARTESIAN_POINT('',(0.,0.999999944120645,-1.50000003352761));
#802=CARTESIAN_POINT('Origin',(1.,0.999999944120646,-3.35276129082018E-8));
#803=CARTESIAN_POINT('Origin',(0.,-1.00000005587935,-1.50000003352761));
#804=CARTESIAN_POINT('',(1.,-1.00000005587935,-1.50000003352761));
#805=CARTESIAN_POINT('Origin',(0.,-3.26277577991609,1.79407036368966));
#806=CARTESIAN_POINT('',(0.,-3.26277577991609,1.79407036368966));
#807=CARTESIAN_POINT('',(0.,-3.26277577991609,-1.80592963631034));
#808=CARTESIAN_POINT('',(0.,-3.26277577991609,1.79407036368966));
#809=CARTESIAN_POINT('',(1.,-3.26277577991609,-1.80592963631034));
#810=CARTESIAN_POINT('',(0.,-3.26277577991609,-1.80592963631034));
#811=CARTESIAN_POINT('',(1.,-3.26277577991609,1.79407036368966));
#812=CARTESIAN_POINT('',(1.,-3.26277577991609,1.79407036368966));
#813=CARTESIAN_POINT('',(0.,-3.26277577991609,1.79407036368966));
#814=CARTESIAN_POINT('Origin',(0.,-3.06277577991609,1.79407036368966));
#815=CARTESIAN_POINT('',(0.,-3.06277577991609,1.99407036368966));
#816=CARTESIAN_POINT('Origin',(0.,-3.06277577991609,1.79407036368966));
#817=CARTESIAN_POINT('',(1.,-3.06277577991609,1.99407036368966));
#818=CARTESIAN_POINT('Origin',(1.,-3.06277577991609,1.79407036368966));
#819=CARTESIAN_POINT('',(0.,-3.06277577991609,1.99407036368966));
#820=CARTESIAN_POINT('Origin',(0.,3.03722422008391,1.99407036368966));
#821=CARTESIAN_POINT('',(0.,3.03722422008391,1.99407036368966));
#822=CARTESIAN_POINT('',(0.,3.03722422008391,1.99407036368966));
#823=CARTESIAN_POINT('',(1.,3.03722422008391,1.99407036368966));
#824=CARTESIAN_POINT('',(1.,3.03722422008391,1.99407036368966));
#825=CARTESIAN_POINT('',(0.,3.03722422008391,1.99407036368966));
#826=CARTESIAN_POINT('Origin',(0.,3.03722422008391,1.79407036368966));
#827=CARTESIAN_POINT('',(0.,3.23722422008391,1.79407036368966));
#828=CARTESIAN_POINT('Origin',(0.,3.03722422008391,1.79407036368966));
#829=CARTESIAN_POINT('',(1.,3.23722422008391,1.79407036368966));
#830=CARTESIAN_POINT('Origin',(1.,3.03722422008391,1.79407036368966));
#831=CARTESIAN_POINT('',(0.,3.23722422008391,1.79407036368966));
#832=CARTESIAN_POINT('Origin',(0.,3.23722422008391,-1.80592963631034));
#833=CARTESIAN_POINT('',(0.,3.23722422008391,-1.80592963631034));
#834=CARTESIAN_POINT('',(0.,3.23722422008391,-1.80592963631034));
#835=CARTESIAN_POINT('',(1.,3.23722422008391,-1.80592963631034));
#836=CARTESIAN_POINT('',(1.,3.23722422008391,-1.80592963631034));
#837=CARTESIAN_POINT('',(0.,3.23722422008391,-1.80592963631034));
#838=CARTESIAN_POINT('Origin',(0.,3.03722422008391,-1.80592963631034));
#839=CARTESIAN_POINT('',(0.,3.03722422008391,-2.00592963631034));
#840=CARTESIAN_POINT('Origin',(0.,3.03722422008391,-1.80592963631034));
#841=CARTESIAN_POINT('',(1.,3.03722422008391,-2.00592963631034));
#842=CARTESIAN_POINT('Origin',(1.,3.03722422008391,-1.80592963631034));
#843=CARTESIAN_POINT('',(0.,3.03722422008391,-2.00592963631034));
#844=CARTESIAN_POINT('Origin',(0.,-3.06277577991609,-2.00592963631034));
#845=CARTESIAN_POINT('',(0.,-3.06277577991609,-2.00592963631034));
#846=CARTESIAN_POINT('',(0.,-3.06277577991609,-2.00592963631034));
#847=CARTESIAN_POINT('',(1.,-3.06277577991609,-2.00592963631034));
#848=CARTESIAN_POINT('',(1.,-3.06277577991609,-2.00592963631034));
#849=CARTESIAN_POINT('',(0.,-3.06277577991609,-2.00592963631034));
#850=CARTESIAN_POINT('Origin',(0.,-3.06277577991609,-1.80592963631034));
#851=CARTESIAN_POINT('Origin',(0.,-3.06277577991609,-1.80592963631034));
#852=CARTESIAN_POINT('Origin',(1.,-3.06277577991609,-1.80592963631034));
#853=CARTESIAN_POINT('Origin',(1.,-0.0127757799160927,-0.00592963631033949));
#854=CARTESIAN_POINT('Origin',(0.,-0.0127757799160927,-0.00592963631033949));
#855=CARTESIAN_POINT('Origin',(-30.0599891647097,10.9628950116654,3.3493109255223));
#856=CARTESIAN_POINT('',(-30.0599891647097,10.9628950116654,3.3493109255223));
#857=CARTESIAN_POINT('',(-30.0599891647097,10.9628950116654,1.8493109255223));
#858=CARTESIAN_POINT('',(-30.0599891647097,10.9628950116654,3.3493109255223));
#859=CARTESIAN_POINT('',(-30.8599891647097,10.9628950116654,1.8493109255223));
#860=CARTESIAN_POINT('',(-30.0599891647097,10.9628950116654,1.8493109255223));
#861=CARTESIAN_POINT('',(-30.8599891647097,10.9628950116654,3.3493109255223));
#862=CARTESIAN_POINT('',(-30.8599891647097,10.9628950116654,3.3493109255223));
#863=CARTESIAN_POINT('',(-30.0599891647097,10.9628950116654,3.3493109255223));
#864=CARTESIAN_POINT('Origin',(-30.0599891647097,8.46289501166532,3.3493109255223));
#865=CARTESIAN_POINT('',(-30.0599891647097,8.46289501166532,3.3493109255223));
#866=CARTESIAN_POINT('',(-30.0599891647097,8.46289501166532,3.3493109255223));
#867=CARTESIAN_POINT('',(-30.8599891647097,8.46289501166532,3.3493109255223));
#868=CARTESIAN_POINT('',(-30.8599891647097,8.46289501166532,3.3493109255223));
#869=CARTESIAN_POINT('',(-30.0599891647097,8.46289501166532,3.3493109255223));
#870=CARTESIAN_POINT('Origin',(-30.0599891647097,8.46289501166532,1.8493109255223));
#871=CARTESIAN_POINT('',(-30.0599891647097,8.46289501166532,1.8493109255223));
#872=CARTESIAN_POINT('',(-30.0599891647097,8.46289501166532,1.8493109255223));
#873=CARTESIAN_POINT('',(-30.8599891647097,8.46289501166532,1.8493109255223));
#874=CARTESIAN_POINT('',(-30.8599891647097,8.46289501166532,1.8493109255223));
#875=CARTESIAN_POINT('',(-30.0599891647097,8.46289501166532,1.8493109255223));
#876=CARTESIAN_POINT('Origin',(-30.0599891647097,10.9628950116654,1.8493109255223));
#877=CARTESIAN_POINT('',(-30.0599891647097,10.9628950116654,1.8493109255223));
#878=CARTESIAN_POINT('',(-30.8599891647097,10.9628950116654,1.8493109255223));
#879=CARTESIAN_POINT('Origin',(-30.0599891647097,9.71289501166536,2.5993109255223));
#880=CARTESIAN_POINT('Origin',(-30.8599891647097,9.71289501166536,2.5993109255223));
#881=CARTESIAN_POINT('',(-30.0697844201794,5.20011923174923,2.60524056183264));
#882=CARTESIAN_POINT('',(-30.0697844201794,14.2001192317493,2.60524056183264));
#883=UNCERTAINTY_MEASURE_WITH_UNIT(LENGTH_MEASURE(0.01),#889,
'DISTANCE_ACCURACY_VALUE',
'Maximum model space distance between geometric entities at asserted c
onnectivities');
#884=UNCERTAINTY_MEASURE_WITH_UNIT(LENGTH_MEASURE(0.01),#889,
'DISTANCE_ACCURACY_VALUE',
'Maximum model space distance between geometric entities at asserted c
onnectivities');
#885=UNCERTAINTY_MEASURE_WITH_UNIT(LENGTH_MEASURE(0.01),#889,
'DISTANCE_ACCURACY_VALUE',
'Maximum model space distance between geometric entities at asserted c
onnectivities');
#886=(
GEOMETRIC_REPRESENTATION_CONTEXT(3)
GLOBAL_UNCERTAINTY_ASSIGNED_CONTEXT((#883))
GLOBAL_UNIT_ASSIGNED_CONTEXT((#889,#891,#892))
REPRESENTATION_CONTEXT('','3D')
);
#887=(
GEOMETRIC_REPRESENTATION_CONTEXT(3)
GLOBAL_UNCERTAINTY_ASSIGNED_CONTEXT((#884))
GLOBAL_UNIT_ASSIGNED_CONTEXT((#889,#891,#892))
REPRESENTATION_CONTEXT('','3D')
);
#888=(
GEOMETRIC_REPRESENTATION_CONTEXT(3)
GLOBAL_UNCERTAINTY_ASSIGNED_CONTEXT((#885))
GLOBAL_UNIT_ASSIGNED_CONTEXT((#889,#891,#892))
REPRESENTATION_CONTEXT('','3D')
);
#889=(
LENGTH_UNIT()
NAMED_UNIT(*)
SI_UNIT(.MILLI.,.METRE.)
);
#890=(
LENGTH_UNIT()
NAMED_UNIT(*)
SI_UNIT($,.METRE.)
);
#891=(
NAMED_UNIT(*)
PLANE_ANGLE_UNIT()
SI_UNIT($,.RADIAN.)
);
#892=(
NAMED_UNIT(*)
SI_UNIT($,.STERADIAN.)
SOLID_ANGLE_UNIT()
);
#893=SHAPE_DEFINITION_REPRESENTATION(#895,#899);
#894=SHAPE_DEFINITION_REPRESENTATION(#896,#900);
#895=PRODUCT_DEFINITION_SHAPE('',$,#902);
#896=PRODUCT_DEFINITION_SHAPE('',$,#903);
#897=PRODUCT_DEFINITION_SHAPE($,$,#17);
#898=PRODUCT_DEFINITION_SHAPE($,$,#18);
#899=SHAPE_REPRESENTATION('',(#531,#581,#582),#886);
#900=SHAPE_REPRESENTATION('',(#532),#887);
#901=PRODUCT_DEFINITION_CONTEXT('part definition',#909,'design');
#902=PRODUCT_DEFINITION('Pushbuttons','Pushbuttons',#904,#901);
#903=PRODUCT_DEFINITION('Pushbutton','Pushbutton',#905,#901);
#904=PRODUCT_DEFINITION_FORMATION('',$,#911);
#905=PRODUCT_DEFINITION_FORMATION('',$,#912);
#906=PRODUCT_RELATED_PRODUCT_CATEGORY('Pushbuttons','Pushbuttons',(#911));
#907=PRODUCT_RELATED_PRODUCT_CATEGORY('Pushbutton','Pushbutton',(#912));
#908=APPLICATION_PROTOCOL_DEFINITION('international standard',
'automotive_design',2009,#909);
#909=APPLICATION_CONTEXT(
'Core Data for Automotive Mechanical Design Process');
#910=PRODUCT_CONTEXT('part definition',#909,'mechanical');
#911=PRODUCT('Pushbuttons','Pushbuttons',$,(#910));
#912=PRODUCT('Pushbutton','Pushbutton',$,(#910));
#913=PRESENTATION_STYLE_ASSIGNMENT((#915));
#914=PRESENTATION_STYLE_ASSIGNMENT((#916));
#915=SURFACE_STYLE_USAGE(.BOTH.,#917);
#916=SURFACE_STYLE_USAGE(.BOTH.,#918);
#917=SURFACE_SIDE_STYLE('',(#919));
#918=SURFACE_SIDE_STYLE('',(#920));
#919=SURFACE_STYLE_FILL_AREA(#921);
#920=SURFACE_STYLE_FILL_AREA(#922);
#921=FILL_AREA_STYLE('Steel - Satin',(#923));
#922=FILL_AREA_STYLE(
'PA 11 - Nylon- HP 11-30 (with EOS P 396 3D Printer)',(#924));
#923=FILL_AREA_STYLE_COLOUR('Steel - Satin',#925);
#924=FILL_AREA_STYLE_COLOUR(
'PA 11 - Nylon- HP 11-30 (with EOS P 396 3D Printer)',#926);
#925=COLOUR_RGB('Steel - Satin',0.627450980392157,0.627450980392157,0.627450980392157);
#926=COLOUR_RGB('PA 11 - Nylon- HP 11-30 (with EOS P 396 3D Printer)',0.247058823529412,
0.247058823529412,0.247058823529412);
ENDSEC;
END-ISO-10303-21;
